<svg xmlns="http://www.w3.org/2000/svg" width="42.094" height="43.515" viewBox="0 0 42.094 43.515">
  <g id="instagram" transform="translate(1.002 1.002)">
    <ellipse id="Elipse_97" data-name="Elipse 97" cx="19.999" cy="20.711" rx="19.999" ry="20.711" transform="matrix(1, -0.002, 0.002, 1, 0, 0.089)" fill="none" stroke="#00cb73" stroke-miterlimit="10" stroke-width="2"/>
    <path id="Caminho_54" data-name="Caminho 54" d="M-519.585,180.823c2.649,0,2.963.01,4.009.058a5.49,5.49,0,0,1,1.843.342,3.072,3.072,0,0,1,1.14.742,3.066,3.066,0,0,1,.743,1.141,5.509,5.509,0,0,1,.341,1.842c.048,1.046.058,1.36.058,4.009s-.01,2.964-.058,4.01a5.509,5.509,0,0,1-.341,1.842,3.066,3.066,0,0,1-.743,1.141,3.073,3.073,0,0,1-1.14.742,5.49,5.49,0,0,1-1.843.342c-1.046.048-1.36.058-4.009.058s-2.964-.01-4.01-.058a5.482,5.482,0,0,1-1.842-.342,3.076,3.076,0,0,1-1.141-.742,3.076,3.076,0,0,1-.742-1.141,5.477,5.477,0,0,1-.342-1.842c-.048-1.046-.058-1.36-.058-4.01s.01-2.963.058-4.009a5.477,5.477,0,0,1,.342-1.842,3.076,3.076,0,0,1,.742-1.141,3.076,3.076,0,0,1,1.141-.742,5.483,5.483,0,0,1,1.842-.342c1.047-.048,1.36-.058,4.01-.058m0-1.788c-2.7,0-3.033.012-4.091.06a7.289,7.289,0,0,0-2.409.461,4.863,4.863,0,0,0-1.757,1.145,4.864,4.864,0,0,0-1.145,1.757,7.288,7.288,0,0,0-.461,2.409c-.048,1.058-.059,1.4-.059,4.09s.011,3.033.059,4.091a7.283,7.283,0,0,0,.461,2.409,4.864,4.864,0,0,0,1.145,1.757,4.863,4.863,0,0,0,1.757,1.145,7.289,7.289,0,0,0,2.409.461c1.058.048,1.4.06,4.091.06s3.032-.012,4.091-.06a7.282,7.282,0,0,0,2.408-.461,4.866,4.866,0,0,0,1.758-1.145,4.874,4.874,0,0,0,1.144-1.757,7.284,7.284,0,0,0,.461-2.409c.048-1.058.06-1.4.06-4.091s-.012-3.032-.06-4.09a7.289,7.289,0,0,0-.461-2.409,4.873,4.873,0,0,0-1.144-1.757,4.867,4.867,0,0,0-1.758-1.145,7.282,7.282,0,0,0-2.408-.461c-1.059-.048-1.4-.06-4.091-.06" transform="translate(539.35 -167.824)" fill="#00cb73"/>
    <path id="Caminho_55" data-name="Caminho 55" d="M-519.585,183.862a5.1,5.1,0,0,0-5.095,5.1,5.1,5.1,0,0,0,5.095,5.1,5.1,5.1,0,0,0,5.1-5.1,5.1,5.1,0,0,0-5.1-5.1m0,8.4a3.308,3.308,0,0,1-3.308-3.308,3.308,3.308,0,0,1,3.308-3.307,3.307,3.307,0,0,1,3.307,3.307,3.308,3.308,0,0,1-3.307,3.308" transform="translate(539.35 -167.824)" fill="#00cb73"/>
    <path id="Caminho_56" data-name="Caminho 56" d="M-513.1,183.661a1.191,1.191,0,0,1-1.191,1.191,1.191,1.191,0,0,1-1.19-1.191,1.191,1.191,0,0,1,1.19-1.191,1.191,1.191,0,0,1,1.191,1.191" transform="translate(539.35 -167.824)" fill="#00cb73"/>
  </g>
</svg>
