<svg xmlns="http://www.w3.org/2000/svg" width="42" height="43.428" viewBox="0 0 42 43.428">
  <g id="linkedin" transform="translate(1 1)">
    <rect id="Retângulo_6" data-name="Retângulo 6" width="3.745" height="12.099" transform="translate(11.36 18.05)" fill="#00cb73"/>
    <path id="Caminho_57" data-name="Caminho 57" d="M-469.821,183.505a2.224,2.224,0,0,0,2.214-2.233,2.223,2.223,0,0,0-2.214-2.232,2.223,2.223,0,0,0-2.215,2.232A2.224,2.224,0,0,0-469.821,183.505Z" transform="translate(483.036 -167.04)" fill="#00cb73"/>
    <path id="Caminho_58" data-name="Caminho 58" d="M-461.944,190.837c0-1.7.783-2.714,2.282-2.714,1.377,0,2.039.973,2.039,2.714v6.352h3.728v-7.661c0-3.241-1.837-4.808-4.4-4.808a4.219,4.219,0,0,0-3.646,2v-1.63h-3.593v12.1h3.593Z" transform="translate(483.036 -167.04)" fill="#00cb73"/>
    <ellipse id="Elipse_12" data-name="Elipse 12" cx="20" cy="20.714" rx="20" ry="20.714" fill="none" stroke="#00cb73" stroke-miterlimit="10" stroke-width="2"/>
  </g>
</svg>
