<svg xmlns="http://www.w3.org/2000/svg" width="42" height="43.428" viewBox="0 0 42 43.428">
  <g id="twitter" transform="translate(1 1)">
    <ellipse id="Elipse_12" data-name="Elipse 12" cx="20" cy="20.714" rx="20" ry="20.714" fill="none" stroke="#00cb73" stroke-miterlimit="10" stroke-width="2"/>
    <path id="Caminho_52" data-name="Caminho 52" d="M-585.06,195.5a11.2,11.2,0,0,0,6.065,1.777,11.19,11.19,0,0,0,11.245-11.769,7.993,7.993,0,0,0,1.974-2.048,7.893,7.893,0,0,1-2.272.623,3.961,3.961,0,0,0,1.739-2.188,7.925,7.925,0,0,1-2.512.96,3.951,3.951,0,0,0-2.888-1.249,3.961,3.961,0,0,0-3.854,4.858,11.229,11.229,0,0,1-8.154-4.134,3.961,3.961,0,0,0,1.225,5.282,3.939,3.939,0,0,1-1.793-.495,3.96,3.96,0,0,0,3.173,3.929,3.962,3.962,0,0,1-1.786.068,3.961,3.961,0,0,0,3.7,2.748A7.955,7.955,0,0,1-585.06,195.5Z" transform="translate(596.699 -167.834)" fill="#00cb73"/>
  </g>
</svg>
